<svg xmlns="http://www.w3.org/2000/svg" version="1.1" xmlns:xlink="http://www.w3.org/1999/xlink" xmlns:svgjs="http://svgjs.dev/svgjs" width="1500" height="1500" viewBox="0 0 1500 1500"><g transform="matrix(1,0,0,1,-0.323615160350073,-0.3236151603499593)"><svg viewBox="0 0 343 343" data-background-color="#561f01" preserveAspectRatio="xMidYMid meet" height="1500" width="1500" xmlns="http://www.w3.org/2000/svg" xmlns:xlink="http://www.w3.org/1999/xlink"><g id="tight-bounds" transform="matrix(1,0,0,1,0.0740000000000407,0.07400000000001228)"><svg viewBox="0 0 342.85155851775386 342.85155851775386" height="342.85155851775386" width="342.85155851775386"><g><svg></svg></g><g><svg viewBox="0 0 342.85155851775386 342.85155851775386" height="342.85155851775386" width="342.85155851775386"><g><path d="M0 171.426c0-94.676 76.75-171.426 171.426-171.426 94.676 0 171.426 76.75 171.426 171.426 0 94.676-76.75 171.426-171.426 171.426-94.676 0-171.426-76.75-171.426-171.426zM171.426 338.475c92.259 0 167.049-74.79 167.049-167.049 0-92.259-74.79-167.049-167.049-167.049-92.259 0-167.049 74.79-167.049 167.049 0 92.259 74.79 167.049 167.049 167.049z" data-fill-palette-color="tertiary" fill="#ebe6c8" stroke="transparent"></path><ellipse rx="164.56874808852186" ry="164.56874808852186" cx="171.42577925887693" cy="171.42577925887693" fill="#ebe6c8" stroke="transparent" stroke-width="0" fill-opacity="1" data-fill-palette-color="tertiary"></ellipse></g><g transform="matrix(1,0,0,1,64.84655864529837,107.89378937110023)"><svg viewBox="0 0 213.1584412271571 127.0639797755534" height="127.0639797755534" width="213.1584412271571"><g><svg viewBox="0 0 213.1584412271571 127.0639797755534" height="127.0639797755534" width="213.1584412271571"><g><svg viewBox="0 0 213.1584412271571 127.0639797755534" height="127.0639797755534" width="213.1584412271571"><g transform="matrix(1,0,0,1,0,78.5306370553446)"><svg viewBox="0 0 213.1584412271571 48.53334272020881" height="48.53334272020881" width="213.1584412271571"><g id="textblocktransform"><svg viewBox="0 0 213.1584412271571 48.53334272020881" height="48.53334272020881" width="213.1584412271571" id="textblock"><g><svg viewBox="0 0 213.1584412271571 48.53334272020881" height="48.53334272020881" width="213.1584412271571"><g transform="matrix(1,0,0,1,0,0)"><svg width="213.1584412271571" viewBox="2 -36.1 164.68 37.5" height="48.53334272020881" data-palette-color="#561f01"><path d="M9.5-22.15L9.5-22.15Q9.5-6.65 10.2-1.85L10.2-1.85Q10.2-0.65 7.9 0.13 5.6 0.9 4.1 0.9 2.6 0.9 2.6 0.45L2.6 0.45Q2.6 0.15 2.75-0.3L2.75-0.3Q3.7-2.4 3.7-17.2L3.7-17.2Q3.7-31.2 2.5-32.75L2.5-32.75 2.3-33.05Q2-33.3 2-33.68 2-34.05 2.55-34.3L2.55-34.3Q3.3-34.75 5.23-35.2 7.15-35.65 8.7-35.65 10.25-35.65 10.25-34.95L10.25-34.95 10.25-34.8Q9.65-29.6 9.5-22.15ZM23.75-22.45L23.75-22.45Q24.65-22.45 25.37-22.23 26.1-22 26.15-22L26.15-22 26.45-22.25 26.25-27.7Q26.15-29.1 25.65-30.1 25.15-31.1 24.75-31.4L24.75-31.4 24.3-31.65Q24-31.85 24-32.1L24-32.1Q24-32.85 26.32-33.85 28.65-34.85 29.95-34.85 31.25-34.85 31.35-34.3L31.35-34.3Q31.6-32.6 31.6-27.83 31.6-23.05 31.37-18.45 31.15-13.85 31.15-8.03 31.15-2.2 31.9-0.7L31.9-0.7Q32.1-0.35 32.1-0.05L32.1-0.05Q32.1 0.7 29.95 0.7L29.95 0.7Q25.85 0.7 25.85-1.25L25.85-1.25Q25.75-2.05 25.75-3.73 25.75-5.4 26.07-9.98 26.4-14.55 26.4-17.03 26.4-19.5 23.92-19.5 21.45-19.5 20.15-16.6 18.85-13.7 18.85-10.8L18.85-10.8Q18.85-4.65 21.95-4.65L21.95-4.65Q22.4-4.65 22.82-4.83 23.25-5 23.35-5L23.35-5Q23.75-5 23.97-4.5 24.2-4 24.2-3.5L24.2-3.5Q24.2-1.8 22.85-0.63 21.5 0.55 19.55 0.55L19.55 0.55Q16.55 0.55 15.02-2.08 13.5-4.7 13.5-8.6L13.5-8.6Q13.5-13.55 15.85-17.8L15.85-17.8Q17.05-19.9 19.1-21.18 21.15-22.45 23.75-22.45ZM39.1-12.7L39.1-12.7 39.15-11.45Q39.15-11.15 39.55-11.15L39.55-11.15Q41.15-11.3 42.35-11.98 43.55-12.65 44.15-13.5L44.15-13.5Q45.35-15.35 45.45-16.7L45.45-16.7 45.5-17.3Q45.5-20 43.35-20L43.35-20Q41.75-20 40.75-18.6L40.75-18.6Q39.1-16.4 39.1-12.7ZM50-6.05L50-6.05Q50-4.15 49.22-2.73 48.45-1.3 47.47-0.63 46.5 0.05 45.2 0.45L45.2 0.45Q43.55 0.95 42.05 0.95L42.05 0.95Q37.85 0.95 35.85-2.2 33.85-5.35 33.85-10.23 33.85-15.1 36.32-18.9 38.8-22.7 43.75-22.7L43.75-22.7Q48.25-22.7 49.85-19.55L49.85-19.55Q50.5-18.35 50.5-17.28 50.5-16.2 50.4-15.58 50.3-14.95 49.7-13.7 49.1-12.45 48.1-11.45 47.1-10.45 44.95-9.55 42.8-8.65 39.9-8.35L39.9-8.35Q39.5-8.35 39.5-8L39.5-8Q39.5-7.55 39.82-6.68 40.15-5.8 40.55-5.2L40.55-5.2Q41.65-3.8 43.8-3.8L43.8-3.8Q45.95-3.8 47.45-5.2L47.45-5.2Q48.25-5.95 48.75-7.05L48.75-7.05Q48.95-7.45 49.27-7.45 49.6-7.45 49.8-6.9 50-6.35 50-6.05ZM68.74-15L68.74-15 68.64-8.6Q68.64-1.95 70.09-0.6L70.09-0.6Q70.29-0.4 70.29-0.15L70.29-0.15Q70.29 0.6 67.07 0.6 63.84 0.6 63.64-1.3L63.64-1.3Q63.59-1.75 63.59-3.15L63.59-3.15 63.79-11.15Q63.79-11.5 63.39-11.5L63.39-11.5Q60.99-11.5 58.89-10.15 56.79-8.8 56.79-6.7L56.79-6.7Q56.79-5.6 57.39-4.85 57.99-4.1 58.87-4.1 59.74-4.1 60.32-4.45 60.89-4.8 60.99-4.85L60.99-4.85Q61.84-4.75 61.84-3.08 61.84-1.4 60.29-0.38 58.74 0.65 57.04 0.65 55.34 0.65 54.12 0.05 52.89-0.55 52.34-1.3 51.79-2.05 51.44-3L51.44-3Q51.09-4.15 51.09-5L51.09-5Q51.09-8.5 53.29-10.6 55.49-12.7 58.94-13.6L58.94-13.6Q63.49-14.5 63.69-15.25L63.69-15.25Q63.84-15.8 63.84-17.1L63.84-17.1Q63.84-19.75 61.14-19.75L61.14-19.75Q59.99-19.75 59.09-19.03 58.19-18.3 58.19-17.2L58.19-17.2 58.49-16Q58.39-15.15 56.69-15L56.69-15 56.14-14.95Q54.64-14.95 53.77-15.7 52.89-16.45 52.89-17.7L52.89-17.7Q52.89-18.5 53.42-19.48 53.94-20.45 54.74-21.05 55.54-21.65 57.22-22.13 58.89-22.6 60.44-22.6 61.99-22.6 62.84-22.5 63.69-22.4 65.17-22.03 66.64-21.65 67.62-20.6 68.59-19.55 68.67-18.38 68.74-17.2 68.74-15ZM88.87-17.75Q89.34-19 89.67-20.33 89.99-21.65 89.99-22.78 89.99-23.9 89.19-26.95L89.19-26.95Q87.79-32.05 86.79-33L86.79-33 86.49-33.35Q85.99-33.65 85.99-34.05L85.99-34.05Q85.99-34.9 88.24-35.5 90.49-36.1 91.92-36.1 93.34-36.1 93.59-35.25L93.59-35.25Q94.19-33.4 94.92-29.9 95.64-26.4 96.17-23.88 96.69-21.35 96.99-20 97.29-18.65 97.79-16.5L97.79-16.5Q98.74-12.5 99.69-9.95L99.69-9.95Q99.99-9.25 100.42-9.25 100.84-9.25 101.32-10.13 101.79-11 102.62-12.63 103.44-14.25 104.81-18.4 106.19-22.55 106.19-25.6L106.19-25.6Q106.19-30.3 103.09-32.25L103.09-32.25Q102.84-32.55 102.84-32.9 102.84-33.25 103.19-33.6L103.19-33.6Q103.54-33.85 104.19-34.27 104.84-34.7 106.79-35.38 108.74-36.05 110.29-36.05 111.84-36.05 112.14-35.63 112.44-35.2 112.44-34.1L112.44-34.1Q112.44-29.25 109.57-21.23 106.69-13.2 103.47-7.08 100.24-0.95 98.64 0.6L98.64 0.6Q97.79 1.35 97.64 1.35L97.64 1.35Q97.19 1.35 96.79 0.65L96.79 0.65Q95.09-2.2 93.09-10.5L93.09-10.5Q92.19-14.4 92.04-14.9 91.89-15.4 91.79-15.4L91.79-15.4Q91.54-15.4 91.34-14.9L91.34-14.9Q89.59-10.85 87.44-6.98 85.29-3.1 83.99-1.25L83.99-1.25 82.74 0.6Q82.24 1.3 81.74 1.3 81.24 1.3 80.84 0.65L80.84 0.65Q79.49-1.9 77.54-9.2L77.54-9.2 76.89-11.7Q76.69-12.4 75.99-15.5L75.99-15.5Q73.34-27.35 71.94-30.3L71.94-30.3Q71.14-31.95 70.57-32.45 69.99-32.95 69.64-33.05L69.64-33.05Q69.09-33.3 69.09-33.68 69.09-34.05 69.49-34.4L69.49-34.4Q70.09-34.85 72.14-35.48 74.19-36.1 75.59-36.1 76.99-36.1 77.24-35.25L77.24-35.25Q78.24-33.4 79.59-26.95L79.59-26.95Q82.44-13.45 83.79-9.95L83.79-9.95Q84.04-9.25 84.49-9.25 84.94-9.25 85.29-10L85.29-10Q85.74-10.45 87.07-13.48 88.39-16.5 88.87-17.75ZM128.14-15L128.14-15 128.04-8.6Q128.04-1.95 129.49-0.6L129.49-0.6Q129.69-0.4 129.69-0.15L129.69-0.15Q129.69 0.6 126.46 0.6 123.24 0.6 123.04-1.3L123.04-1.3Q122.99-1.75 122.99-3.15L122.99-3.15 123.19-11.15Q123.19-11.5 122.79-11.5L122.79-11.5Q120.39-11.5 118.29-10.15 116.19-8.8 116.19-6.7L116.19-6.7Q116.19-5.6 116.79-4.85 117.39-4.1 118.26-4.1 119.14-4.1 119.71-4.45 120.29-4.8 120.39-4.85L120.39-4.85Q121.24-4.75 121.24-3.08 121.24-1.4 119.69-0.38 118.14 0.65 116.44 0.65 114.74 0.65 113.51 0.05 112.29-0.55 111.74-1.3 111.19-2.05 110.84-3L110.84-3Q110.49-4.15 110.49-5L110.49-5Q110.49-8.5 112.69-10.6 114.89-12.7 118.34-13.6L118.34-13.6Q122.89-14.5 123.09-15.25L123.09-15.25Q123.24-15.8 123.24-17.1L123.24-17.1Q123.24-19.75 120.54-19.75L120.54-19.75Q119.39-19.75 118.49-19.03 117.59-18.3 117.59-17.2L117.59-17.2 117.89-16Q117.79-15.15 116.09-15L116.09-15 115.54-14.95Q114.04-14.95 113.16-15.7 112.29-16.45 112.29-17.7L112.29-17.7Q112.29-18.5 112.81-19.48 113.34-20.45 114.14-21.05 114.94-21.65 116.61-22.13 118.29-22.6 119.84-22.6 121.39-22.6 122.24-22.5 123.09-22.4 124.56-22.03 126.04-21.65 127.01-20.6 127.99-19.55 128.06-18.38 128.14-17.2 128.14-15ZM142.46-21.6Q144.59-22.65 146.69-22.65 148.78-22.65 148.78-18.3L148.78-18.3Q148.78-15.1 147.61-11.8 146.44-8.5 144.69-6L144.69-6Q141.09-0.75 138.19 1L138.19 1Q137.49 1.4 137.13 1.4 136.78 1.4 136.41 0.65 136.03-0.1 135.26-2.65 134.49-5.2 133.99-7.2L133.99-7.2 133.53-9.25Q132.53-13.65 131.59-16.28 130.63-18.9 130.19-19.3L130.19-19.3 129.69-19.75Q129.19-20 129.19-20.35L129.19-20.35 129.44-20.8Q130.09-21.4 131.61-22.03 133.13-22.65 134.99-22.65L134.99-22.65Q135.84-22.65 136.03-21.7L136.03-21.7Q136.78-19.4 137.34-16.3 137.88-13.2 138.81-9.3 139.74-5.4 140.34-5.35L140.34-5.35Q140.63-5.35 141.01-5.8 141.38-6.25 141.91-7 142.44-7.75 143.21-9.9 143.99-12.05 143.99-13.58 143.99-15.1 143.86-15.93 143.74-16.75 142.99-17.85 142.24-18.95 141.28-19.13 140.34-19.3 140.34-19.75L140.34-19.75Q140.34-20.55 142.46-21.6ZM155.28-12.7L155.28-12.7 155.33-11.45Q155.33-11.15 155.73-11.15L155.73-11.15Q157.33-11.3 158.53-11.98 159.73-12.65 160.33-13.5L160.33-13.5Q161.53-15.35 161.63-16.7L161.63-16.7 161.68-17.3Q161.68-20 159.53-20L159.53-20Q157.93-20 156.93-18.6L156.93-18.6Q155.28-16.4 155.28-12.7ZM166.18-6.05L166.18-6.05Q166.18-4.15 165.41-2.73 164.63-1.3 163.66-0.63 162.68 0.05 161.38 0.45L161.38 0.45Q159.73 0.95 158.23 0.95L158.23 0.95Q154.03 0.95 152.03-2.2 150.03-5.35 150.03-10.23 150.03-15.1 152.51-18.9 154.98-22.7 159.93-22.7L159.93-22.7Q164.43-22.7 166.03-19.55L166.03-19.55Q166.68-18.35 166.68-17.28 166.68-16.2 166.58-15.58 166.48-14.95 165.88-13.7 165.28-12.45 164.28-11.45 163.28-10.45 161.13-9.55 158.98-8.65 156.08-8.35L156.08-8.35Q155.68-8.35 155.68-8L155.68-8Q155.68-7.55 156.01-6.68 156.33-5.8 156.73-5.2L156.73-5.2Q157.83-3.8 159.98-3.8L159.98-3.8Q162.13-3.8 163.63-5.2L163.63-5.2Q164.43-5.95 164.93-7.05L164.93-7.05Q165.13-7.45 165.46-7.45 165.78-7.45 165.98-6.9 166.18-6.35 166.18-6.05Z" opacity="1" transform="matrix(1,0,0,1,0,0)" fill="#561f01" class="wordmark-text-0" data-fill-palette-color="quaternary" id="text-0"></path></svg></g></svg></g></svg></g></svg></g><g transform="matrix(1,0,0,1,69.01829601555455,0)"><svg viewBox="0 0 75.121849196048 67.07307963932858" height="67.07307963932858" width="75.121849196048"><g><svg xmlns="http://www.w3.org/2000/svg" viewBox="32 56 448 400" x="0" y="0" height="67.07307963932858" width="75.121849196048" class="icon-icon-0" data-fill-palette-color="quaternary" id="icon-0"><g fill="#561f01" data-fill-palette-color="quaternary"><path d="M175.99 440L176 456H336V440z" fill="#561f01" data-fill-palette-color="quaternary"></path><path d="M256.139 138.582A95.826 95.826 0 0 0 160.423 240.788L200.289 226.288A56 56 0 0 1 310.728 220.151L347.028 203.651A95.84 95.84 0 0 0 256.136 138.58Z" fill="#561f01" data-fill-palette-color="quaternary"></path><path d="M295.2 224A40.14 40.14 0 0 0 273.244 195.911L276.558 203.637A71.8 71.8 0 0 1 281.883 224Z" fill="#561f01" data-fill-palette-color="quaternary"></path><path d="M256.168 346.484A112.35 112.35 0 0 1 208.729 336H32V354A14.015 14.015 0 0 0 46 368H341.07L307.933 333.854A112.1 112.1 0 0 1 256.168 346.484" fill="#561f01" data-fill-palette-color="quaternary"></path><path d="M344.828 302.954A112.2 112.2 0 0 1 321.865 325.236L361.665 366.247 384.626 343.967Z" fill="#561f01" data-fill-palette-color="quaternary"></path><path d="M288.478 384H223.522A65.45 65.45 0 0 1 204.687 422.628L203.313 424H308.687L307.313 422.628A65.45 65.45 0 0 1 288.478 384" fill="#561f01" data-fill-palette-color="quaternary"></path><path d="M295.2 240H281.883A71.8 71.8 0 0 1 276.555 260.357L273.239 268.089A40.15 40.15 0 0 0 295.2 240" fill="#561f01" data-fill-palette-color="quaternary"></path><path d="M256 196.31L250.152 209.943A55.8 55.8 0 0 0 246.232 224H265.768A55.8 55.8 0 0 0 261.846 209.938Z" fill="#561f01" data-fill-palette-color="quaternary"></path><path d="M238.761 268.089L235.447 260.363A71.8 71.8 0 0 1 230.117 240H216.805A40.14 40.14 0 0 0 238.761 268.089" fill="#561f01" data-fill-palette-color="quaternary"></path><circle cx="104" cy="264" r="8.0" fill="#561f01" data-fill-palette-color="quaternary"></circle><path d="M175.774 312.533A111.3 111.3 0 0 1 147.708 262.433L127.271 269.865A24 24 0 1 1 80.764 257.979L32 236.31V320H183.766Q179.634 316.495 175.774 312.533" fill="#561f01" data-fill-palette-color="quaternary"></path><path d="M201.1 243.024L162.847 256.934A95.948 95.948 0 0 0 350.9 219.469L311.742 237.269A56 56 0 0 1 201.092 243.025Z" fill="#561f01" data-fill-palette-color="quaternary"></path><path d="M235.445 203.643L238.761 195.911A40.15 40.15 0 0 0 216.805 224H230.117A71.8 71.8 0 0 1 235.445 203.643" fill="#561f01" data-fill-palette-color="quaternary"></path><rect x="373.862" y="364.33" width="31.993" height="16" transform="translate(-149.216 376.606) rotate(-44.137)" fill="#561f01" data-fill-palette-color="quaternary"></rect><path d="M256 267.69L261.848 254.057A55.8 55.8 0 0 0 265.768 240H246.232A55.8 55.8 0 0 0 250.154 254.062Z" fill="#561f01" data-fill-palette-color="quaternary"></path><polygon points="408 88 392 88 392 112 392 136 408 136 408 96 408 88" fill="#561f01" data-fill-palette-color="quaternary"></polygon><path d="M466 56H46A14.015 14.015 0 0 0 32 70V218.8L89.953 244.557A23.968 23.968 0 0 1 125.559 253.465L144.836 246.455A112.6 112.6 0 0 1 153.614 189.498L117.784 168H56V152H120A8 8 0 0 1 124.116 153.14L161.082 175.319A112.013 112.013 0 0 1 331.105 151.319L344 140.311V112A8 8 0 0 1 352 104H376V80A8 8 0 0 1 384 72H416A8 8 0 0 1 424 80V88H448A8 8 0 0 1 456 96V136H464V152H354.951L342.223 162.869A111.1 111.1 0 0 1 361.664 197L384.629 186.561A23.993 23.993 0 0 1 431.811 194.961L480 219.056V70A14.015 14.015 0 0 0 466 56M56 88H80V104H56ZM104 136H56V120H104ZM136 136H120V120H136ZM136 104H96V88H136Z" fill="#561f01" data-fill-palette-color="quaternary"></path><path d="M408 216A24.02 24.02 0 0 1 386.766 203.167L365.952 212.628A112.48 112.48 0 0 1 353.861 289.288L383.663 320H480V236.944L424.644 209.266A23.9 23.9 0 0 1 408 216M400 256H416V272H400ZM464 304H416V288H464ZM432 256H464V272H432Z" fill="#561f01" data-fill-palette-color="quaternary"></path><circle cx="408" cy="192" r="8.0" fill="#561f01" data-fill-palette-color="quaternary"></circle><path d="M418.052 378.414L395.093 400.693 428.521 435.139A15.995 15.995 0 1 0 451.479 412.862Z" fill="#561f01" data-fill-palette-color="quaternary"></path><rect x="424" y="104" width="16" height="32" fill="#561f01" data-fill-palette-color="quaternary"></rect><rect x="360" y="120" width="16" height="16" fill="#561f01" data-fill-palette-color="quaternary"></rect><path d="M430.241 368H466A14.015 14.015 0 0 0 480 354V336H399.189Z" fill="#561f01" data-fill-palette-color="quaternary"></path></g></svg></g></svg></g><g></g></svg></g></svg></g></svg></g></svg></g><defs></defs></svg><rect width="342.85155851775386" height="342.85155851775386" fill="none" stroke="none" visibility="hidden"></rect></g></svg></g></svg>